<svg xmlns="http://www.w3.org/2000/svg" width="55" height="56" viewBox="0 0 55 56" fill="none"><path d="M49.5 25.7127C49.5 36.9746 40.0358 45.875 27.264 45.875C14.4922 45.875 4.58331 33.3087 4.58331 22.0468C4.58331 10.785 16.3249 3.88099 27.264 4.17573C38.9427 4.49039 49.5 14.4509 49.5 25.7127Z" fill="#E6EFFF"></path><rect x="42.1666" y="25.25" width="10.5417" height="20.625" fill="#FFD680"></rect><rect x="2.29169" y="25.25" width="10.5417" height="20.625" fill="#FFD680"></rect><path d="M42.1666 18.375L12.8333 45.875H42.1666V18.375Z" fill="#FFD680"></path><rect x="12.8333" y="12.875" width="29.3333" height="33" fill="#FFEBBF"></rect><path d="M9.19924 39.2822C10.4425 38.2578 12.8659 38.5947 12.8659 38.5947V45.9281L0.949239 45.928C0.949239 45.928 0.490906 43.6364 3.01174 41.803C4.84507 40.4697 7.82424 41.3447 7.82424 41.3447C7.82424 41.3447 8.23721 40.0749 9.19924 39.2822Z" fill="#003D9F"></path><path d="M45.8333 39.2822C44.59 38.2578 42.1666 38.5947 42.1666 38.5947V45.9281L54.0833 45.928C54.0833 45.928 54.5416 43.6364 52.0208 41.803C50.1875 40.4697 47.2083 41.3447 47.2083 41.3447C47.2083 41.3447 46.7953 40.0749 45.8333 39.2822Z" fill="#003D9F"></path><path d="M36.2084 3.87665C36.2084 3.55636 35.8848 3.33629 35.5782 3.42908C31.9431 4.52928 31.6471 2.04842 27.8242 3.11767C27.6316 3.17153 27.5 3.35021 27.5 3.55017V8.37389C27.5 8.72779 27.8944 8.96635 28.2264 8.84364C29.0503 8.53904 30.4344 8.23499 31.625 8.97917C33.085 9.89163 35.1262 9.47352 35.8971 9.26535C36.0857 9.21444 36.2084 9.04161 36.2084 8.84629V3.87665Z" fill="#70A7FF"></path><path d="M27.5 2.79166V13.1042" stroke="#003D9F" stroke-width="0.916667" stroke-linecap="round"></path><path d="M35.3947 3.56107L31.1667 8.75C32.8988 9.83258 33.8323 9.70771 35.8443 9.28525C36.0562 9.24075 36.2084 9.05343 36.2084 8.8369V3.85059C36.2084 3.41939 35.6671 3.22679 35.3947 3.56107Z" fill="#0E5FE1"></path><path d="M37.7813 15.625H42.1666V45.875H18.3333L37.7813 15.625Z" fill="#FFD680"></path><path d="M11.4583 13.3333C11.4583 13.0802 11.6635 12.875 11.9166 12.875H43.0833C43.3364 12.875 43.5416 13.0802 43.5416 13.3333V13.7917C43.5416 14.5511 42.926 15.1667 42.1666 15.1667H12.8333C12.0739 15.1667 11.4583 14.5511 11.4583 13.7917V13.3333Z" fill="#FA6772"></path><path d="M1.375 24.7917C1.375 24.5385 1.5802 24.3333 1.83333 24.3333H12.8333V26.625H2.75C1.99061 26.625 1.375 26.0094 1.375 25.25V24.7917Z" fill="#FA6772"></path><path d="M12.8333 15.1667H42.1666" stroke="#891433" stroke-width="0.916667" stroke-linecap="round"></path><path d="M42.1666 24.3333H53.1666C53.4198 24.3333 53.625 24.5385 53.625 24.7917V25.25C53.625 26.0094 53.0094 26.625 52.25 26.625H42.1666V24.3333Z" fill="#FA6772"></path><path d="M52.7083 27.0833C52.9614 27.0833 53.1666 26.8781 53.1666 26.625C53.1666 26.3719 52.9614 26.1667 52.7083 26.1667V27.0833ZM42.1666 27.0833L52.7083 27.0833V26.1667L42.1666 26.1667V27.0833Z" fill="#891433"></path><path d="M2.29165 27.0833C2.03852 27.0833 1.83331 26.8781 1.83331 26.625C1.83331 26.3719 2.03852 26.1667 2.29165 26.1667V27.0833ZM12.8333 27.0833L2.29165 27.0833V26.1667L12.8333 26.1667V27.0833Z" fill="#891433"></path><rect x="4.58331" y="30.2917" width="2.29167" height="7.33333" rx="0.458333" fill="#F0F5FF"></rect><rect x="44" y="30.2917" width="2.29167" height="7.33333" rx="0.458333" fill="#F0F5FF"></rect><rect x="8.70831" y="30.2917" width="2.29167" height="7.33333" rx="0.458333" fill="#F0F5FF"></rect><rect x="48.125" y="30.2917" width="2.29167" height="7.33333" rx="0.458333" fill="#F0F5FF"></rect><rect x="18.3333" y="42.6667" width="18.5263" height="5.04167" rx="0.916667" fill="#FFEBBF"></rect><rect x="16.5" y="45.4167" width="22" height="3.20833" rx="0.916667" fill="#FFEBBF"></rect><circle cx="27.7291" cy="22.2708" r="3.89583" fill="white"></circle><line x1="6.41665" y1="30.75" x2="6.41665" y2="37.1667" stroke="#1E6DEB" stroke-width="0.916667" stroke-linecap="round"></line><line x1="45.8333" y1="30.75" x2="45.8333" y2="37.1667" stroke="#1E6DEB" stroke-width="0.916667" stroke-linecap="round"></line><line x1="10.5416" y1="30.75" x2="10.5416" y2="37.1667" stroke="#1E6DEB" stroke-width="0.916667" stroke-linecap="round"></line><line x1="49.9583" y1="30.75" x2="49.9583" y2="37.1667" stroke="#1E6DEB" stroke-width="0.916667" stroke-linecap="round"></line><path d="M21.0834 34.2697L27.5 29.8333L33.9167 34.2697V42.2083H21.0834V34.2697Z" fill="#FFEBBF"></path><path d="M17.4167 45.4167H37.5834" stroke="#A80011" stroke-width="0.916667" stroke-linecap="round"></path><path d="M19.25 42.2083H35.2917" stroke="#A80011" stroke-width="0.916667" stroke-linecap="round"></path><path d="M27.5 29.375L27.7653 29.0012C27.6064 28.8885 27.3937 28.8885 27.2348 29.0012L27.5 29.375ZM34.3389 34.7904C34.5454 34.9369 34.8315 34.8884 34.978 34.6819C35.1245 34.4755 35.0759 34.1894 34.8695 34.0429L34.3389 34.7904ZM20.1306 34.0429C19.9242 34.1894 19.8756 34.4755 20.0221 34.6819C20.1686 34.8884 20.4547 34.9369 20.6611 34.7904L20.1306 34.0429ZM27.2348 29.7488L34.3389 34.7904L34.8695 34.0429L27.7653 29.0012L27.2348 29.7488ZM20.6611 34.7904L27.7653 29.7488L27.2348 29.0012L20.1306 34.0429L20.6611 34.7904Z" fill="#9A0010"></path><path d="M24.75 37.3958C24.75 36.0036 25.8786 34.875 27.2708 34.875C28.6631 34.875 29.7917 36.0036 29.7917 37.3958V41.559C29.7917 41.6645 29.7062 41.75 29.6007 41.75H24.941C24.8355 41.75 24.75 41.6645 24.75 41.559V37.3958Z" fill="#FA6772"></path><path d="M29.3334 41.75V37.3838C29.3334 36.2513 28.4153 35.3333 27.2829 35.3333V35.3333H27.0417" stroke="#A80011" stroke-width="0.916667" stroke-linecap="round"></path><path d="M27.5 20.6667V22.9583H29.3333" stroke="#1E6DEB" stroke-width="0.916667" stroke-linecap="round" stroke-linejoin="round"></path></svg>